<svg id="레이어_1" data-name="레이어 1" xmlns="http://www.w3.org/2000/svg" viewBox="0 0 256 256"><defs><style>.cls-1{fill:#bdbdbd;}</style></defs><path id="패스_74" data-name="패스 74" class="cls-1" d="M128,157.11a3.81,3.81,0,0,1-2.55-1c-2.64-2.31-5.19-4.48-7.44-6.4h0a138.78,138.78,0,0,1-16.26-15.25,24.28,24.28,0,0,1-6.49-16,20.48,20.48,0,0,1,5.19-14,17.62,17.62,0,0,1,13.1-5.69,16.48,16.48,0,0,1,10.29,3.54,21.23,21.23,0,0,1,4.16,4.36,20.88,20.88,0,0,1,4.16-4.34,16.48,16.48,0,0,1,10.29-3.54,17.62,17.62,0,0,1,13.1,5.69,20.41,20.41,0,0,1,5.19,14,24.33,24.33,0,0,1-6.49,15.94A138.78,138.78,0,0,1,138,149.74c-2.26,1.92-4.81,4.09-7.46,6.41A3.82,3.82,0,0,1,128,157.11Z"/></svg>