<svg id="레이어_1" data-name="레이어 1" xmlns="http://www.w3.org/2000/svg" viewBox="0 0 256 256"><defs><style>.cls-1{fill:#fff;fill-rule:evenodd;}</style></defs><path id="_111106_edit_pencil_write_icon" data-name=" 111106 edit pencil write icon" class="cls-1" d="M72.41,116.62a20.75,20.75,0,0,0-5.09,11.45L55.85,182.35a16.25,16.25,0,0,0,17.8,17.83L128,188.85a20.82,20.82,0,0,0,11.24-4.91l57.56-57.62a11.91,11.91,0,0,0,0-16.78L146.51,59.2a11.87,11.87,0,0,0-16.75,0Zm55.24,57.92L99.52,180,76.21,156.59l5.36-28.16,41.9-42a5.93,5.93,0,0,1,8.41,8.37l0,0L93.1,133.69a7.41,7.41,0,0,0,10.19,10.75l.27-.27,38.76-38.8a5.93,5.93,0,0,1,8.5,8.26l-.12.12L112,152.55A7.4,7.4,0,0,0,122.41,163l38.77-38.8a5.94,5.94,0,0,1,8.38,8.41Z"/></svg>