<svg id="레이어_1" data-name="레이어 1" xmlns="http://www.w3.org/2000/svg" viewBox="0 0 256 256"><defs><style>.cls-1{fill:#959595;}</style></defs><path class="cls-1" d="M168.85,71h-18l-1.45-5.42a4.73,4.73,0,0,0-.3-.82A10.13,10.13,0,0,0,139.5,59h-23a10.65,10.65,0,0,0-9.61,5.84,5.16,5.16,0,0,0-.29.74l-1.41,4.93h-18A12,12,0,0,0,75.36,82.26V93.2a8,8,0,0,0,5.75,7.44v82.3A14,14,0,0,0,95.21,197h65.58c7.64,0,14.1-6.72,14.1-14.67V100.58a7.48,7.48,0,0,0,5.75-7.38V82.84A12,12,0,0,0,168.85,71ZM84,82.26a3.29,3.29,0,0,1,3.16-3.16h21.29A4.32,4.32,0,0,0,112.59,76l2.15-7.56a2.19,2.19,0,0,1,1.75-.82h23c1.09,0,1.41.2,1.71.72l2.18,8.16a4.31,4.31,0,0,0,4.17,3.2h21.29A3.29,3.29,0,0,1,172,82.84v9.49H84Zm82.27,100.11c0,3.22-2.56,6-5.47,6H95.21a5.42,5.42,0,0,1-5.47-5.47V101h76.52Z"/><path class="cls-1" d="M109.59,176.33a4.33,4.33,0,0,0,4.32-4.32V117.36a4.32,4.32,0,1,0-8.63,0V172A4.32,4.32,0,0,0,109.59,176.33Z"/><path class="cls-1" d="M128,176.33a4.32,4.32,0,0,0,4.31-4.32V117.36a4.32,4.32,0,1,0-8.63,0V172A4.33,4.33,0,0,0,128,176.33Z"/><path class="cls-1" d="M146.41,176.33a4.32,4.32,0,0,0,4.31-4.32V117.36a4.32,4.32,0,1,0-8.63,0V172A4.33,4.33,0,0,0,146.41,176.33Z"/></svg>