<svg id="레이어_1" data-name="레이어 1" xmlns="http://www.w3.org/2000/svg" viewBox="0 0 256 256"><defs><style>.cls-1{fill:#959595;}</style></defs><path class="cls-1" d="M161.23,188H83.7A15.67,15.67,0,0,1,68.05,172.3V94.77A15.66,15.66,0,0,1,83.7,79.13h29.57a4.57,4.57,0,0,1,0,9.14H83.7a6.51,6.51,0,0,0-6.51,6.5V172.3a6.51,6.51,0,0,0,6.51,6.5h77.53a6.51,6.51,0,0,0,6.5-6.5V142.73a4.58,4.58,0,0,1,9.15,0V172.3A15.67,15.67,0,0,1,161.23,188Z"/><path class="cls-1" d="M128,154.72H105.85a4.58,4.58,0,0,1-4.57-4.57V128a4.55,4.55,0,0,1,1.34-3.23L158,69.39a4.56,4.56,0,0,1,6.46,0l22.15,22.15a4.57,4.57,0,0,1,0,6.47l-55.37,55.37A4.57,4.57,0,0,1,128,154.72Zm-17.57-9.14h15.68l50.8-50.81L161.23,79.09l-50.8,50.8Z"/></svg>